<svg xmlns="http://www.w3.org/2000/svg" viewBox="0 0 48 48"><defs><clipPath id="b"><path d="M.49 0H47.5v47.02H.49Zm0 0"/></clipPath><clipPath id="d"><path d="M.49 0H34v33H.49Zm0 0"/></clipPath><clipPath id="g"><path d="M2 2h23v23H2Zm0 0"/></clipPath><clipPath id="h"><path d="M-.2 19.5 20-.7l5.72 5.72-20.19 20.2Zm0 0"/></clipPath><clipPath id="i"><path d="M20.63 2.38a2.84 2.84 0 0 1 3.05 4.64L7.51 23.19a2.84 2.84 0 0 1-4.64-3.05A31.6 31.6 0 0 1 20.63 2.38m0 0"/></clipPath><clipPath id="k"><path d="M.37 0h22.57v22.45H.37Zm0 0"/></clipPath><clipPath id="l"><path d="M-2.2 17.5 18-2.7l5.72 5.72-20.19 20.2Zm0 0"/></clipPath><clipPath id="m"><path d="M18.63.38a2.84 2.84 0 0 1 3.05 4.64L5.51 21.19a2.84 2.84 0 0 1-4.64-3.05A31.6 31.6 0 0 1 18.63.38m0 0"/></clipPath><clipPath id="j"><path d="M0 0h23v23H0z"/></clipPath><clipPath id="f"><path d="M0 0h34v33H0z"/></clipPath><clipPath id="n"><path d="M.49 0H42v42H.49Zm0 0"/></clipPath><clipPath id="q"><path d="M4 3h32v32H4Zm0 0"/></clipPath><clipPath id="r"><path d="M1.46 30.18 30.68.98l7.7 7.7-29.21 29.2Zm0 0"/></clipPath><clipPath id="s"><path d="M31.31 4.18a2.96 2.96 0 0 1 3.85 3.84c-1.66 4.2-4.17 8.01-7.36 11.2l-8.09 8.09c-3.19 3.19-7 5.7-11.2 7.36a2.96 2.96 0 0 1-3.84-3.85 33 33 0 0 1 7.36-11.2l8.08-8.08c3.2-3.2 7-5.7 11.2-7.36m0 0"/></clipPath><clipPath id="u"><path d="M.02.53h31.73V32H.02Zm0 0"/></clipPath><clipPath id="v"><path d="m-2.54 27.18 29.22-29.2 7.7 7.7-29.21 29.2Zm0 0"/></clipPath><clipPath id="w"><path d="M27.31 1.18a2.96 2.96 0 0 1 3.85 3.84c-1.66 4.2-4.17 8.01-7.36 11.2l-8.09 8.09c-3.19 3.19-7 5.7-11.2 7.36a2.96 2.96 0 0 1-3.84-3.85 33 33 0 0 1 7.36-11.2l8.08-8.08c3.2-3.2 7-5.7 11.2-7.36m0 0"/></clipPath><clipPath id="t"><path d="M0 0h32v32H0z"/></clipPath><clipPath id="p"><path d="M0 0h42v42H0z"/></clipPath><clipPath id="x"><path d="M6 5h41.5v42.02H6Zm0 0"/></clipPath><clipPath id="A"><path d="M6 7h32v32H6Zm0 0"/></clipPath><clipPath id="B"><path d="m40.54 11.84-29.22 29.2-7.7-7.7 29.21-29.2Zm0 0"/></clipPath><clipPath id="C"><path d="M10.69 37.84A2.96 2.96 0 0 1 6.84 34c1.66-4.2 4.17-8.01 7.36-11.2l8.09-8.09c3.19-3.19 7-5.7 11.2-7.36a2.96 2.96 0 0 1 3.84 3.85 33 33 0 0 1-7.36 11.2l-8.08 8.08c-3.2 3.2-7 5.7-11.2 7.36m0 0"/></clipPath><clipPath id="E"><path d="M.25 0h31.73v31.5H.25Zm0 0"/></clipPath><clipPath id="F"><path d="M34.54 4.84 5.32 34.04l-7.7-7.7 29.21-29.2Zm0 0"/></clipPath><clipPath id="G"><path d="M4.69 30.84A2.96 2.96 0 0 1 .84 27c1.66-4.2 4.17-8.01 7.36-11.2l8.09-8.09c3.19-3.19 7-5.7 11.2-7.36a2.96 2.96 0 0 1 3.84 3.85 33 33 0 0 1-7.36 11.2l-8.08 8.08c-3.2 3.2-7 5.7-11.2 7.36m0 0"/></clipPath><clipPath id="D"><path d="M0 0h32v32H0z"/></clipPath><clipPath id="z"><path d="M0 0h42v43H0z"/></clipPath><clipPath id="H"><path d="M14 14h33.5v33.02H14Zm0 0"/></clipPath><clipPath id="K"><path d="M9 9h23v22H9Zm0 0"/></clipPath><clipPath id="L"><path d="M34.2 13.52 14 33.72 8.3 28 28.48 7.8Zm0 0"/></clipPath><clipPath id="M"><path d="M13.37 30.64A2.84 2.84 0 0 1 10.32 26L26.49 9.83a2.84 2.84 0 0 1 4.64 3.05 31.6 31.6 0 0 1-17.76 17.76m0 0"/></clipPath><clipPath id="O"><path d="M.06 0h22.57v22H.06Zm0 0"/></clipPath><clipPath id="P"><path d="M25.2 4.52 5 24.72-.7 19 19.48-1.2Zm0 0"/></clipPath><clipPath id="Q"><path d="M4.37 21.64A2.84 2.84 0 0 1 1.32 17L17.49.83a2.84 2.84 0 0 1 4.64 3.05A31.6 31.6 0 0 1 4.37 21.64m0 0"/></clipPath><clipPath id="N"><path d="M0 0h23v22H0z"/></clipPath><clipPath id="J"><path d="M0 0h34v34H0z"/></clipPath><clipPath id="R"><path d="M0 0h30v37H0z"/></clipPath><clipPath id="c"><path d="M0 0h48v48H0z"/></clipPath><mask id="e"><g filter="url(#a)"><path fill-opacity=".5" d="M-10.56-10.56h69.12v69.12h-69.12z"/></g></mask><mask id="o"><g filter="url(#a)"><path fill-opacity=".5" d="M-10.56-10.56h69.12v69.12h-69.12z"/></g></mask><mask id="y"><g filter="url(#a)"><path fill-opacity=".5" d="M-10.56-10.56h69.12v69.12h-69.12z"/></g></mask><mask id="I"><g filter="url(#a)"><path fill-opacity=".5" d="M-10.56-10.56h69.12v69.12h-69.12z"/></g></mask><filter id="a" width="100%" height="100%" x="0%" y="0%"><feColorMatrix color-interpolation-filters="sRGB" values="0 0 0 0 1 0 0 0 0 1 0 0 0 0 1 0 0 0 1 0"/></filter></defs><g clip-path="url(#b)"><g clip-path="url(#c)"><g clip-path="url(#d)" mask="url(#e)"><g clip-path="url(#f)"><g clip-path="url(#g)"><g clip-path="url(#h)"><g clip-path="url(#i)"><g clip-path="url(#j)" transform="translate(2 2)"><g clip-path="url(#k)"><g clip-path="url(#l)"><g clip-path="url(#m)"><path fill="#eb5555" d="m-11.86 23.18 35.54-35.53 7.7 7.7-35.53 35.53Zm0 0"/></g></g></g></g></g></g></g></g></g><g clip-path="url(#n)" mask="url(#o)"><g clip-path="url(#p)"><g clip-path="url(#q)"><g clip-path="url(#r)"><g clip-path="url(#s)"><g clip-path="url(#t)" transform="translate(4 3)"><g clip-path="url(#u)"><g clip-path="url(#v)"><g clip-path="url(#w)"><path fill="#1182ff" d="M-5.7 30.34 29.84-5.19l7.7 7.7L2 38.04Zm0 0"/></g></g></g></g></g></g></g></g></g><g clip-path="url(#x)" mask="url(#y)"><g clip-path="url(#z)" transform="translate(6 5)"><g clip-path="url(#A)"><g clip-path="url(#B)"><g clip-path="url(#C)"><g clip-path="url(#D)" transform="translate(6 7)"><g clip-path="url(#E)"><g clip-path="url(#F)"><g clip-path="url(#G)"><path fill="#f7ac2f" d="M37.7 1.68 2.16 37.2l-7.7-7.7L30-6.02Zm0 0"/></g></g></g></g></g></g></g></g></g><g clip-path="url(#H)" mask="url(#I)"><g clip-path="url(#J)" transform="translate(14 14)"><g clip-path="url(#K)"><g clip-path="url(#L)"><g clip-path="url(#M)"><g clip-path="url(#N)" transform="translate(9 9)"><g clip-path="url(#O)"><g clip-path="url(#P)"><g clip-path="url(#Q)"><path fill="#2ca156" d="M34.86-1.16-.68 34.37l-7.7-7.7L27.15-8.86Zm0 0"/></g></g></g></g></g></g></g></g></g><g clip-path="url(#R)" transform="translate(9 5)"><path fill="#333" d="M21.7 35.78h-5.56q-.87 0-1.27-.4-.39-.4-.39-1.25v-4.38H8.73q-3.72 0-5.33-2.09a8.5 8.5 0 0 1-1.6-5.34v-11.6q0-.47.12-.8.12-.32.39-.54l4.66-3.94q.16-.14.48-.23.3-.1.67-.1h5.6q.87 0 1.26.4.4.41.4 1.27v2.27l4.26-3.6q.18-.15.48-.24.3-.1.67-.1h5.57q.87 0 1.26.4.4.41.4 1.27V30.2q0 .47-.13.8a1.4 1.4 0 0 1-.38.53l-4.68 3.9q-.15.15-.46.26-.3.1-.67.1m-2.2-10.32v4.73q0 .7.3 1t1 .3h5.56q.68 0 1-.3.3-.3.3-1V6.8q0-.7-.3-1-.32-.32-1-.32h-5.57q-.69 0-1 .31-.3.33-.3 1v11.13h-3.35q-.5 0-.81-.33a1.3 1.3 0 0 1-.32-.9v-9.9q0-.67-.31-1-.3-.3-.98-.3h-5.6q-.7 0-1 .3-.3.33-.3 1v12.68q0 3.08 1.54 4.54 1.53 1.46 5.03 1.46Zm3.9 2.78v-6.4h-8.64q-2.05.01-3.03-.95-.97-.96-.97-2.84V8.72h.36v9.33q0 1.73.9 2.6.9.84 2.74.84h8.64V8.72h.36v19.52Zm0 0"/></g></g></g></svg>